<?xml version="1.0" encoding="UTF-8" standalone="no"?>
<svg width="223px" height="75px" viewBox="0 0 223 75" version="1.1" xmlns="http://www.w3.org/2000/svg" xmlns:xlink="http://www.w3.org/1999/xlink">
    <!-- Generator: Sketch 41.2 (35397) - http://www.bohemiancoding.com/sketch -->
    <title>udp-starbucks-en</title>
    <desc>Created with Sketch.</desc>
    <defs>
        <rect id="path-1" x="0" y="0" width="207" height="56" rx="28"></rect>
        <filter x="-50%" y="-50%" width="200%" height="200%" filterUnits="objectBoundingBox" id="filter-2">
            <feOffset dx="0" dy="4" in="SourceAlpha" result="shadowOffsetOuter1"></feOffset>
            <feGaussianBlur stdDeviation="2" in="shadowOffsetOuter1" result="shadowBlurOuter1"></feGaussianBlur>
            <feColorMatrix values="0 0 0 0 0   0 0 0 0 0   0 0 0 0 0  0 0 0 0.104223279 0" type="matrix" in="shadowBlurOuter1" result="shadowMatrixOuter1"></feColorMatrix>
            <feOffset dx="0" dy="0" in="SourceAlpha" result="shadowOffsetOuter2"></feOffset>
            <feGaussianBlur stdDeviation="2" in="shadowOffsetOuter2" result="shadowBlurOuter2"></feGaussianBlur>
            <feColorMatrix values="0 0 0 0 0   0 0 0 0 0   0 0 0 0 0  0 0 0 0.24 0" type="matrix" in="shadowBlurOuter2" result="shadowMatrixOuter2"></feColorMatrix>
            <feMerge>
                <feMergeNode in="shadowMatrixOuter1"></feMergeNode>
                <feMergeNode in="shadowMatrixOuter2"></feMergeNode>
            </feMerge>
        </filter>
    </defs>
    <g id="Page-1" stroke="none" stroke-width="1" fill="none" fill-rule="evenodd">
        <g id="udp-starbucks-en">
            <g id="Group-2" transform="translate(8.000000, 7.000000)">
                <g id="BG-Copy-3">
                    <use fill="black" fill-opacity="1" filter="url(#filter-2)" xlink:href="#path-1"></use>
                    <use fill="#00AF66" fill-rule="evenodd" xlink:href="#path-1"></use>
                </g>
                <path d="M66.104,31.728 C66.104,30.976 66.776,30.384 67.928,30.384 C68.952,30.384 69.96,30.784 70.968,31.536 L72.024,30.048 C70.888,29.136 69.592,28.64 67.96,28.64 C65.736,28.64 64.136,29.952 64.136,31.904 C64.136,33.984 65.48,34.688 67.864,35.264 C69.944,35.744 70.392,36.176 70.392,36.992 C70.392,37.856 69.624,38.416 68.408,38.416 C67.016,38.416 65.944,37.888 64.872,36.96 L63.688,38.368 C65.032,39.568 66.648,40.16 68.36,40.16 C70.712,40.16 72.36,38.912 72.36,36.8 C72.36,34.928 71.128,34.08 68.76,33.504 C66.616,32.992 66.104,32.608 66.104,31.728 Z M76.792,33.216 L79.064,33.216 L79.064,31.552 L76.792,31.552 L76.792,29.232 L74.856,29.232 L74.856,31.552 L73.784,31.552 L73.784,33.216 L74.856,33.216 L74.856,37.664 C74.856,39.52 75.864,40.144 77.288,40.144 C78.008,40.144 78.552,39.984 79.032,39.712 L79.032,38.128 C78.648,38.32 78.264,38.416 77.832,38.416 C77.176,38.416 76.792,38.112 76.792,37.36 L76.792,33.216 Z M88.104,40 L88.104,34.992 C88.104,32.736 86.888,31.424 84.392,31.424 C83.016,31.424 82.104,31.712 81.176,32.128 L81.704,33.68 C82.472,33.36 83.176,33.152 84.12,33.152 C85.464,33.152 86.2,33.792 86.2,34.96 L86.2,35.168 C85.544,34.96 84.888,34.816 83.864,34.816 C81.896,34.816 80.44,35.712 80.44,37.536 L80.44,37.568 C80.44,39.264 81.848,40.176 83.448,40.176 C84.728,40.176 85.608,39.648 86.184,38.96 L86.184,40 L88.104,40 Z M86.232,36.944 C86.232,38 85.272,38.72 83.992,38.72 C83.08,38.72 82.36,38.272 82.36,37.472 L82.36,37.44 C82.36,36.576 83.08,36.08 84.296,36.08 C85.048,36.08 85.736,36.224 86.232,36.416 L86.232,36.944 Z M92.344,36.784 C92.344,34.544 93.528,33.44 95.224,33.44 L95.336,33.44 L95.336,31.392 C93.848,31.328 92.872,32.192 92.344,33.456 L92.344,31.552 L90.408,31.552 L90.408,40 L92.344,40 L92.344,36.784 Z M105.752,35.776 C105.752,32.96 103.816,31.376 101.816,31.376 C100.456,31.376 99.576,32.08 98.952,32.96 L98.952,28.32 L97.016,28.32 L97.016,40 L98.952,40 L98.952,38.688 C99.544,39.472 100.424,40.176 101.816,40.176 C103.832,40.176 105.752,38.592 105.752,35.776 Z M103.784,35.776 C103.784,37.456 102.696,38.496 101.368,38.496 C100.056,38.496 98.904,37.424 98.904,35.776 C98.904,34.128 100.056,33.056 101.368,33.056 C102.68,33.056 103.784,34.112 103.784,35.776 Z M113.288,36.32 C113.288,37.632 112.504,38.416 111.384,38.416 C110.232,38.416 109.576,37.664 109.576,36.352 L109.576,31.552 L107.64,31.552 L107.64,36.928 C107.64,38.896 108.744,40.176 110.648,40.176 C111.96,40.176 112.744,39.488 113.288,38.688 L113.288,40 L115.224,40 L115.224,31.552 L113.288,31.552 L113.288,36.32 Z M125.016,38.608 L123.848,37.456 C123.24,38.08 122.568,38.512 121.656,38.512 C120.168,38.512 119.128,37.296 119.128,35.776 C119.128,34.288 120.152,33.072 121.56,33.072 C122.536,33.072 123.16,33.504 123.752,34.128 L124.952,32.832 C124.168,31.968 123.176,31.376 121.576,31.376 C119.048,31.376 117.192,33.392 117.192,35.808 C117.192,38.224 119.048,40.192 121.56,40.192 C123.208,40.192 124.184,39.536 125.016,38.608 Z M131.224,34.992 L134.584,31.552 L132.232,31.552 L128.728,35.296 L128.728,28.32 L126.792,28.32 L126.792,40 L128.728,40 L128.728,37.584 L129.912,36.352 L132.456,40 L134.696,40 L131.224,34.992 Z M142.136,37.504 L142.136,37.472 C142.136,35.952 140.744,35.392 139.512,35.008 C138.52,34.688 137.608,34.432 137.608,33.824 L137.608,33.792 C137.608,33.296 138.04,32.944 138.792,32.944 C139.496,32.944 140.36,33.248 141.176,33.744 L141.944,32.368 C141.048,31.776 139.896,31.408 138.84,31.408 C137.16,31.408 135.832,32.384 135.832,33.984 L135.832,34.016 C135.832,35.632 137.224,36.144 138.472,36.496 C139.464,36.8 140.36,37.024 140.36,37.68 L140.36,37.712 C140.36,38.272 139.88,38.624 139.048,38.624 C138.184,38.624 137.192,38.272 136.28,37.584 L135.416,38.896 C136.472,39.728 137.8,40.16 139,40.16 C140.76,40.16 142.136,39.28 142.136,37.504 Z M154.92,28.72 L153.096,28.72 L148.168,40 L150.184,40 L151.336,37.296 L156.632,37.296 L157.768,40 L159.848,40 L154.92,28.72 Z M155.912,35.552 L152.056,35.552 L153.976,31.072 L155.912,35.552 Z M170.28,35.776 C170.28,32.96 168.344,31.376 166.344,31.376 C164.984,31.376 164.104,32.08 163.48,32.96 L163.48,31.552 L161.544,31.552 L161.544,42.56 L163.48,42.56 L163.48,38.688 C164.072,39.472 164.952,40.176 166.344,40.176 C168.36,40.176 170.28,38.592 170.28,35.776 Z M168.312,35.776 C168.312,37.456 167.224,38.496 165.896,38.496 C164.584,38.496 163.432,37.424 163.432,35.776 C163.432,34.128 164.584,33.056 165.896,33.056 C167.208,33.056 168.312,34.112 168.312,35.776 Z M181,35.776 C181,32.96 179.064,31.376 177.064,31.376 C175.704,31.376 174.824,32.08 174.2,32.96 L174.2,31.552 L172.264,31.552 L172.264,42.56 L174.2,42.56 L174.2,38.688 C174.792,39.472 175.672,40.176 177.064,40.176 C179.08,40.176 181,38.592 181,35.776 Z M179.032,35.776 C179.032,37.456 177.944,38.496 176.616,38.496 C175.304,38.496 174.152,37.424 174.152,35.776 C174.152,34.128 175.304,33.056 176.616,33.056 C177.928,33.056 179.032,34.112 179.032,35.776 Z" id="Starbucks-App" fill="#FFFFFF"></path>
                <path d="M63.79,15.92 L66.58,15.92 C67.046669,15.92 67.4966645,15.991666 67.93,16.135 C68.3633355,16.2783341 68.746665,16.4966652 69.08,16.79 C69.413335,17.0833348 69.679999,17.4516645 69.88,17.895 C70.080001,18.3383356 70.18,18.859997 70.18,19.46 C70.18,20.0666697 70.0650011,20.5916645 69.835,21.035 C69.6049988,21.4783356 69.3083351,21.8449986 68.945,22.135 C68.5816648,22.4250015 68.1783355,22.641666 67.735,22.785 C67.2916644,22.9283341 66.8566688,23 66.43,23 L63.79,23 L63.79,15.92 Z M65.99,21.86 C66.3833353,21.86 66.7549982,21.8150005 67.105,21.725 C67.4550017,21.6349996 67.7599987,21.495001 68.02,21.305 C68.2800013,21.1149991 68.4849992,20.8683349 68.635,20.565 C68.7850007,20.2616652 68.86,19.8933355 68.86,19.46 C68.86,19.0333312 68.793334,18.6666682 68.66,18.36 C68.526666,18.0533318 68.3416678,17.805001 68.105,17.615 C67.8683321,17.4249991 67.5883349,17.2850005 67.265,17.195 C66.941665,17.1049996 66.5866686,17.06 66.2,17.06 L65.05,17.06 L65.05,21.86 L65.99,21.86 Z M71.13,20.6 C71.13,20.2199981 71.1983327,19.8750015 71.335,19.565 C71.4716674,19.2549984 71.6566655,18.9900011 71.89,18.77 C72.1233345,18.5499989 72.3999984,18.3800006 72.72,18.26 C73.0400016,18.1399994 73.3799982,18.08 73.74,18.08 C74.1000018,18.08 74.4399984,18.1399994 74.76,18.26 C75.0800016,18.3800006 75.3566655,18.5499989 75.59,18.77 C75.8233345,18.9900011 76.0083327,19.2549984 76.145,19.565 C76.2816674,19.8750015 76.35,20.2199981 76.35,20.6 C76.35,20.9800019 76.2816674,21.3249984 76.145,21.635 C76.0083327,21.9450015 75.8233345,22.2099989 75.59,22.43 C75.3566655,22.6500011 75.0800016,22.8199994 74.76,22.94 C74.4399984,23.0600006 74.1000018,23.12 73.74,23.12 C73.3799982,23.12 73.0400016,23.0600006 72.72,22.94 C72.3999984,22.8199994 72.1233345,22.6500011 71.89,22.43 C71.6566655,22.2099989 71.4716674,21.9450015 71.335,21.635 C71.1983327,21.3249984 71.13,20.9800019 71.13,20.6 Z M72.33,20.6 C72.33,20.7866676 72.3616664,20.9666658 72.425,21.14 C72.4883337,21.3133342 72.5816661,21.466666 72.705,21.6 C72.828334,21.733334 72.9766658,21.8399996 73.15,21.92 C73.3233342,22.0000004 73.5199989,22.04 73.74,22.04 C73.9600011,22.04 74.1566658,22.0000004 74.33,21.92 C74.5033342,21.8399996 74.6516661,21.733334 74.775,21.6 C74.898334,21.466666 74.9916664,21.3133342 75.055,21.14 C75.1183337,20.9666658 75.15,20.7866676 75.15,20.6 C75.15,20.4133324 75.1183337,20.2333342 75.055,20.06 C74.9916664,19.8866658 74.898334,19.733334 74.775,19.6 C74.6516661,19.466666 74.5033342,19.3600004 74.33,19.28 C74.1566658,19.1999996 73.9600011,19.16 73.74,19.16 C73.5199989,19.16 73.3233342,19.1999996 73.15,19.28 C72.9766658,19.3600004 72.828334,19.466666 72.705,19.6 C72.5816661,19.733334 72.4883337,19.8866658 72.425,20.06 C72.3616664,20.2333342 72.33,20.4133324 72.33,20.6 Z M76.92,18.2 L78.22,18.2 L79.26,21.56 L79.28,21.56 L80.25,18.2 L81.55,18.2 L82.59,21.56 L82.61,21.56 L83.61,18.2 L84.82,18.2 L83.19,23 L82,23 L80.86,19.72 L80.84,19.72 L79.83,23 L78.59,23 L76.92,18.2 Z M85.63,18.2 L86.77,18.2 L86.77,18.97 L86.79,18.97 C86.9033339,18.7299988 87.0766655,18.5216675 87.31,18.345 C87.5433345,18.1683324 87.859998,18.08 88.26,18.08 C88.5800016,18.08 88.8516656,18.1333328 89.075,18.24 C89.2983345,18.3466672 89.4799993,18.4866658 89.62,18.66 C89.7600007,18.8333342 89.8599997,19.0333322 89.92,19.26 C89.9800003,19.4866678 90.01,19.7233321 90.01,19.97 L90.01,23 L88.81,23 L88.81,20.57 C88.81,20.436666 88.8033334,20.2883341 88.79,20.125 C88.7766666,19.9616658 88.741667,19.808334 88.685,19.665 C88.6283331,19.5216659 88.5400006,19.4016671 88.42,19.305 C88.2999994,19.2083328 88.1366677,19.16 87.93,19.16 C87.729999,19.16 87.5616674,19.193333 87.425,19.26 C87.2883327,19.326667 87.1750005,19.4166661 87.085,19.53 C86.9949996,19.6433339 86.9300002,19.7733326 86.89,19.92 C86.8499998,20.0666674 86.83,20.2199992 86.83,20.38 L86.83,23 L85.63,23 L85.63,18.2 Z M91.49,15.44 L92.69,15.44 L92.69,23 L91.49,23 L91.49,15.44 Z M93.93,20.6 C93.93,20.2199981 93.9983327,19.8750015 94.135,19.565 C94.2716674,19.2549984 94.4566655,18.9900011 94.69,18.77 C94.9233345,18.5499989 95.1999984,18.3800006 95.52,18.26 C95.8400016,18.1399994 96.1799982,18.08 96.54,18.08 C96.9000018,18.08 97.2399984,18.1399994 97.56,18.26 C97.8800016,18.3800006 98.1566655,18.5499989 98.39,18.77 C98.6233345,18.9900011 98.8083327,19.2549984 98.945,19.565 C99.0816674,19.8750015 99.15,20.2199981 99.15,20.6 C99.15,20.9800019 99.0816674,21.3249984 98.945,21.635 C98.8083327,21.9450015 98.6233345,22.2099989 98.39,22.43 C98.1566655,22.6500011 97.8800016,22.8199994 97.56,22.94 C97.2399984,23.0600006 96.9000018,23.12 96.54,23.12 C96.1799982,23.12 95.8400016,23.0600006 95.52,22.94 C95.1999984,22.8199994 94.9233345,22.6500011 94.69,22.43 C94.4566655,22.2099989 94.2716674,21.9450015 94.135,21.635 C93.9983327,21.3249984 93.93,20.9800019 93.93,20.6 Z M95.13,20.6 C95.13,20.7866676 95.1616664,20.9666658 95.225,21.14 C95.2883337,21.3133342 95.3816661,21.466666 95.505,21.6 C95.628334,21.733334 95.7766658,21.8399996 95.95,21.92 C96.1233342,22.0000004 96.3199989,22.04 96.54,22.04 C96.7600011,22.04 96.9566658,22.0000004 97.13,21.92 C97.3033342,21.8399996 97.4516661,21.733334 97.575,21.6 C97.698334,21.466666 97.7916664,21.3133342 97.855,21.14 C97.9183337,20.9666658 97.95,20.7866676 97.95,20.6 C97.95,20.4133324 97.9183337,20.2333342 97.855,20.06 C97.7916664,19.8866658 97.698334,19.733334 97.575,19.6 C97.4516661,19.466666 97.3033342,19.3600004 97.13,19.28 C96.9566658,19.1999996 96.7600011,19.16 96.54,19.16 C96.3199989,19.16 96.1233342,19.1999996 95.95,19.28 C95.7766658,19.3600004 95.628334,19.466666 95.505,19.6 C95.3816661,19.733334 95.2883337,19.8866658 95.225,20.06 C95.1616664,20.2333342 95.13,20.4133324 95.13,20.6 Z M103.37,22.34 L103.34,22.34 C103.166666,22.6133347 102.946668,22.811666 102.68,22.935 C102.413332,23.0583339 102.120002,23.12 101.8,23.12 C101.579999,23.12 101.365001,23.0900003 101.155,23.03 C100.944999,22.9699997 100.758334,22.8800006 100.595,22.76 C100.431666,22.6399994 100.300001,22.4900009 100.2,22.31 C100.1,22.1299991 100.05,21.9200012 100.05,21.68 C100.05,21.4199987 100.096666,21.1983342 100.19,21.015 C100.283334,20.8316657 100.408333,20.6783339 100.565,20.555 C100.721667,20.431666 100.903332,20.3333337 101.11,20.26 C101.316668,20.1866663 101.531666,20.1316668 101.755,20.095 C101.978334,20.0583331 102.203332,20.035 102.43,20.025 C102.656668,20.0149999 102.869999,20.01 103.07,20.01 L103.37,20.01 L103.37,19.88 C103.37,19.5799985 103.266668,19.3550007 103.06,19.205 C102.853332,19.0549992 102.590002,18.98 102.27,18.98 C102.016665,18.98 101.780001,19.0249995 101.56,19.115 C101.339999,19.2050004 101.150001,19.3266659 100.99,19.48 L100.36,18.85 C100.626668,18.5766653 100.938332,18.3800006 101.295,18.26 C101.651668,18.1399994 102.019998,18.08 102.4,18.08 C102.740002,18.08 103.026666,18.1183329 103.26,18.195 C103.493335,18.271667 103.686666,18.3699994 103.84,18.49 C103.993334,18.6100006 104.111666,18.7483325 104.195,18.905 C104.278334,19.0616674 104.338333,19.2199992 104.375,19.38 C104.411667,19.5400008 104.433333,19.6949992 104.44,19.845 C104.446667,19.9950007 104.45,20.1266661 104.45,20.24 L104.45,23 L103.37,23 L103.37,22.34 Z M103.3,20.85 L103.05,20.85 C102.883333,20.85 102.696668,20.8566666 102.49,20.87 C102.283332,20.8833334 102.088334,20.9149998 101.905,20.965 C101.721666,21.0150003 101.566667,21.0883329 101.44,21.185 C101.313333,21.2816672 101.25,21.4166658 101.25,21.59 C101.25,21.7033339 101.275,21.798333 101.325,21.875 C101.375,21.9516671 101.44,22.0166664 101.52,22.07 C101.6,22.1233336 101.69,22.1616666 101.79,22.185 C101.890001,22.2083335 101.99,22.22 102.09,22.22 C102.503335,22.22 102.808332,22.1216677 103.005,21.925 C103.201668,21.7283324 103.3,21.4600017 103.3,21.12 L103.3,20.85 Z M109.64,22.28 L109.62,22.28 C109.446666,22.5733348 109.213335,22.786666 108.92,22.92 C108.626665,23.053334 108.310002,23.12 107.97,23.12 C107.596665,23.12 107.265001,23.0550006 106.975,22.925 C106.684999,22.7949993 106.436668,22.6166678 106.23,22.39 C106.023332,22.1633322 105.866667,21.8966682 105.76,21.59 C105.653333,21.2833318 105.6,20.9533351 105.6,20.6 C105.6,20.2466649 105.656666,19.9166682 105.77,19.61 C105.883334,19.3033318 106.041666,19.0366678 106.245,18.81 C106.448334,18.5833322 106.693332,18.4050006 106.98,18.275 C107.266668,18.1449993 107.579998,18.08 107.92,18.08 C108.146668,18.08 108.346666,18.1033331 108.52,18.15 C108.693334,18.1966669 108.846666,18.2566663 108.98,18.33 C109.113334,18.4033337 109.226666,18.4816662 109.32,18.565 C109.413334,18.6483337 109.49,18.7299996 109.55,18.81 L109.58,18.81 L109.58,15.44 L110.78,15.44 L110.78,23 L109.64,23 L109.64,22.28 Z M106.8,20.6 C106.8,20.7866676 106.831666,20.9666658 106.895,21.14 C106.958334,21.3133342 107.051666,21.466666 107.175,21.6 C107.298334,21.733334 107.446666,21.8399996 107.62,21.92 C107.793334,22.0000004 107.989999,22.04 108.21,22.04 C108.430001,22.04 108.626666,22.0000004 108.8,21.92 C108.973334,21.8399996 109.121666,21.733334 109.245,21.6 C109.368334,21.466666 109.461666,21.3133342 109.525,21.14 C109.588334,20.9666658 109.62,20.7866676 109.62,20.6 C109.62,20.4133324 109.588334,20.2333342 109.525,20.06 C109.461666,19.8866658 109.368334,19.733334 109.245,19.6 C109.121666,19.466666 108.973334,19.3600004 108.8,19.28 C108.626666,19.1999996 108.430001,19.16 108.21,19.16 C107.989999,19.16 107.793334,19.1999996 107.62,19.28 C107.446666,19.3600004 107.298334,19.466666 107.175,19.6 C107.051666,19.733334 106.958334,19.8866658 106.895,20.06 C106.831666,20.2333342 106.8,20.4133324 106.8,20.6 Z M114.74,19.22 L114.74,18.2 L115.73,18.2 L115.73,16.81 L116.93,16.81 L116.93,18.2 L118.25,18.2 L118.25,19.22 L116.93,19.22 L116.93,21.32 C116.93,21.5600012 116.975,21.7499993 117.065,21.89 C117.155,22.0300007 117.333332,22.1 117.6,22.1 C117.706667,22.1 117.823333,22.0883335 117.95,22.065 C118.076667,22.0416666 118.176666,22.0033336 118.25,21.95 L118.25,22.96 C118.123333,23.0200003 117.968334,23.0616666 117.785,23.085 C117.601666,23.1083335 117.440001,23.12 117.3,23.12 C116.979998,23.12 116.718334,23.0850004 116.515,23.015 C116.311666,22.9449997 116.151667,22.8383341 116.035,22.695 C115.918333,22.551666 115.838334,22.3733344 115.795,22.16 C115.751666,21.9466656 115.73,21.7000014 115.73,21.42 L115.73,19.22 L114.74,19.22 Z M120.5,18.87 L120.52,18.87 C120.613334,18.669999 120.778332,18.4883342 121.015,18.325 C121.251668,18.1616658 121.556665,18.08 121.93,18.08 C122.250002,18.08 122.521666,18.1333328 122.745,18.24 C122.968334,18.3466672 123.149999,18.4866658 123.29,18.66 C123.430001,18.8333342 123.53,19.0333322 123.59,19.26 C123.65,19.4866678 123.68,19.7233321 123.68,19.97 L123.68,23 L122.48,23 L122.48,20.57 C122.48,20.436666 122.473333,20.2883341 122.46,20.125 C122.446667,19.9616658 122.411667,19.808334 122.355,19.665 C122.298333,19.5216659 122.210001,19.4016672 122.09,19.305 C121.969999,19.2083328 121.806668,19.16 121.6,19.16 C121.399999,19.16 121.231667,19.193333 121.095,19.26 C120.958333,19.326667 120.845,19.4166661 120.755,19.53 C120.665,19.6433339 120.6,19.7733326 120.56,19.92 C120.52,20.0666674 120.5,20.2199992 120.5,20.38 L120.5,23 L119.3,23 L119.3,15.44 L120.5,15.44 L120.5,18.87 Z M126.1,21.02 C126.14,21.3800018 126.279999,21.659999 126.52,21.86 C126.760001,22.060001 127.049998,22.16 127.39,22.16 C127.690002,22.16 127.941666,22.0983339 128.145,21.975 C128.348334,21.851666 128.526666,21.6966676 128.68,21.51 L129.54,22.16 C129.259999,22.5066684 128.946668,22.7533326 128.6,22.9 C128.253332,23.0466674 127.890002,23.12 127.51,23.12 C127.149998,23.12 126.810002,23.0600006 126.49,22.94 C126.169998,22.8199994 125.893335,22.6500011 125.66,22.43 C125.426666,22.2099989 125.241667,21.9450015 125.105,21.635 C124.968333,21.3249984 124.9,20.9800019 124.9,20.6 C124.9,20.2199981 124.968333,19.8750015 125.105,19.565 C125.241667,19.2549984 125.426666,18.9900011 125.66,18.77 C125.893335,18.5499989 126.169998,18.3800006 126.49,18.26 C126.810002,18.1399994 127.149998,18.08 127.51,18.08 C127.843335,18.08 128.148332,18.1383327 128.425,18.255 C128.701668,18.3716672 128.938332,18.5399989 129.135,18.76 C129.331668,18.9800011 129.484999,19.251665 129.595,19.575 C129.705001,19.8983349 129.76,20.2699979 129.76,20.69 L129.76,21.02 L126.1,21.02 Z M128.56,20.12 C128.553333,19.7666649 128.443334,19.4883344 128.23,19.285 C128.016666,19.0816657 127.720002,18.98 127.34,18.98 C126.979998,18.98 126.695001,19.0833323 126.485,19.29 C126.274999,19.4966677 126.146667,19.7733316 126.1,20.12 L128.56,20.12 Z" id="Download-the" fill="#FFFFFF"></path>
                <g id="logo-copy-3" transform="translate(25.000000, 14.000000)">
                    <g id="Layer_1">
                        <g id="Group">
                            <path d="M14,27.6514523 C6.28235294,27.6514523 0.0352941176,21.4705394 0.0352941176,13.8605809 C0.0352941176,12.0779144 0.719487289,10.6310993 1.37461725,9.16737336 C2.57396702,6.48772281 4.42164567,4.18045046 7.06727623,2.68509079 C9.15503811,1.50504889 11.396139,0.379164749 14,0.379164749 C15.5923036,0.379164749 17.2108455,0.942802296 18.5883774,1.46986538 C21.7104706,2.66442224 24.1040004,4.47884157 25.7714103,7.37268125 C26.9286709,9.38114143 27.9647059,11.3832654 27.9647059,13.8605809 C27.9647059,21.4821577 21.7058824,27.6514523 14,27.6514523 Z" id="Shape" fill="#FFFFFF"></path>
                            <path d="M15.4,6.02987552 C15.2823529,6.006639 14.6941176,5.91369295 14,5.91369295 C13.3058824,5.91369295 12.7176471,6.006639 12.6,6.02987552 C12.5294118,6.04149378 12.5058824,5.97178423 12.5529412,5.93692946 C12.6,5.90207469 14,4.84481328 14,4.84481328 C14,4.84481328 15.4,5.90207469 15.4470588,5.93692946 C15.4941176,5.97178423 15.4705882,6.04149378 15.4,6.02987552 M12.9764706,12.8614108 C12.9764706,12.8614108 12.9058824,12.8846473 12.8823529,12.9543568 C13.1764706,13.1751037 13.3764706,13.6863071 13.9882353,13.6863071 C14.6,13.6863071 14.8,13.1751037 15.0941176,12.9543568 C15.0705882,12.8846473 15,12.8614108 15,12.8614108 C15,12.8614108 14.6117647,12.9543568 13.9882353,12.9543568 C13.3647059,12.9543568 12.9764706,12.8614108 12.9764706,12.8614108 M13.9882353,12.013278 C13.8235294,12.013278 13.7764706,11.9551867 13.6705882,11.9551867 C13.5647059,11.9551867 13.3411765,12.0481328 13.2941176,12.1178423 C13.2941176,12.1526971 13.3176471,12.1875519 13.3411765,12.2224066 C13.5882353,12.2572614 13.7058824,12.3966805 13.9882353,12.3966805 C14.2705882,12.3966805 14.3882353,12.2572614 14.6352941,12.2224066 C14.6705882,12.1875519 14.6823529,12.1526971 14.6823529,12.1178423 C14.6352941,12.0365145 14.4235294,11.9551867 14.3058824,11.9551867 C14.2,11.9435685 14.1647059,12.013278 13.9882353,12.013278 M27.9411765,14.6157676 C27.9176471,14.9410788 27.8941176,15.2780083 27.8588235,15.5917012 C26.2823529,15.8473029 25.7176471,14.4647303 24.0941176,14.5228216 C24.1882353,14.859751 24.2705882,15.2082988 24.3294118,15.5568465 C25.6705882,15.5568465 26.2,16.7883817 27.6941176,16.6024896 C27.6117647,16.9742739 27.5176471,17.3460581 27.4117647,17.7178423 C26.2352941,17.8340249 25.8235294,16.6838174 24.4588235,16.7070539 C24.4705882,16.9045643 24.4705882,17.0904564 24.4705882,17.2879668 C24.4705882,17.3925311 24.4705882,17.5087137 24.4588235,17.613278 C25.6235294,17.6016598 26,18.6589212 27.1058824,18.6124481 C26.9647059,18.9842324 26.8117647,19.3443983 26.6470588,19.7045643 C25.8470588,19.6580913 25.5764706,18.6589212 24.3764706,18.740249 C24.3411765,18.9958506 24.2941176,19.2514523 24.2352941,19.5070539 C25.2823529,19.4373444 25.5058824,20.3900415 26.2588235,20.459751 C26.0705882,20.8082988 25.8588235,21.1452282 25.6470588,21.4705394 C25.2,21.2381743 24.8117647,20.5294606 23.9764706,20.4829876 C24.0588235,20.2157676 24.1411765,19.9485477 24.2,19.6813278 C23.4470588,19.6813278 22.6,19.3908714 21.8823529,18.7518672 C22.1176471,17.4390041 20.0588235,16.1145228 20.0588235,15.1502075 C20.0588235,14.1161826 20.5882353,13.5352697 20.5882353,12.1294606 C20.5882353,11.0838174 20.0705882,9.95684647 19.3058824,9.19004149 C19.1529412,9.03900415 19,8.92282158 18.8235294,8.806639 C19.5294118,9.6780083 20.0823529,10.7004149 20.0823529,11.8970954 C20.0823529,13.2215768 19.4588235,13.9186722 19.4588235,15.1385892 C19.4588235,16.3585062 21.2705882,17.4157676 21.2705882,18.6705394 C21.2705882,19.1701245 21.1058824,19.646473 20.5882353,20.5991701 C21.4,21.4008299 22.4588235,21.8307054 23.1411765,21.8307054 C23.3647059,21.8307054 23.4823529,21.7609959 23.5647059,21.5983402 C23.6352941,21.4473029 23.6941176,21.2962656 23.7529412,21.1452282 C24.4823529,21.1684647 24.8235294,21.8307054 25.2235294,22.0979253 C25,22.3883817 24.7647059,22.6788382 24.5176471,22.9576763 C24.2470588,22.6556017 23.8823529,22.1560166 23.3411765,22.0165975 C23.2470588,22.2024896 23.1411765,22.3767635 23.0352941,22.5626556 C23.4941176,22.6904564 23.8117647,23.1435685 24.0588235,23.4456432 C23.8,23.7128631 23.5176471,23.9684647 23.2352941,24.2240664 C23.0588235,23.9568465 22.7764706,23.6082988 22.4705882,23.4107884 L22.1176471,23.8639004 C22.3882353,24.0381743 22.6117647,24.3634855 22.7647059,24.6190871 C22.4352941,24.8863071 22.0941176,25.1302905 21.7411765,25.3626556 C21.5647059,23.9568465 19.6352941,23.0041494 20.1529412,21.3775934 C19.9764706,21.6680498 19.7764706,22.0282158 19.7764706,22.4580913 C19.7764706,23.6315353 21.0470588,24.5726141 21.1411765,25.7344398 C20.8823529,25.8854772 20.6117647,26.0365145 20.3294118,26.1759336 C20.2823529,24.8863071 18.9411765,23.4804979 18.9411765,22.4348548 C18.9411765,21.2614108 20.5058824,20.0763485 20.5058824,18.6821577 C20.5058824,17.2879668 18.7058824,16.3236515 18.7058824,15.1037344 C18.7058824,13.8838174 19.4705882,13.186722 19.4705882,11.6182573 C19.4705882,10.4680498 18.9176471,9.31784232 18.0705882,8.57427386 C17.9176471,8.44647303 17.7764706,8.34190871 17.5882353,8.24896266 C18.3882353,9.20165975 18.8588235,10.0614108 18.8588235,11.3742739 C18.8588235,12.8497925 17.9764706,13.6630705 17.9764706,15.1037344 C17.9764706,16.5443983 19.7411765,17.3460581 19.7411765,18.6821577 C19.7411765,20.0182573 18.0941176,21.1568465 18.0941176,22.5394191 C18.0941176,23.7941909 19.5411765,25.0489627 19.5647059,26.5360996 C19.2470588,26.6755187 18.9294118,26.8033195 18.6,26.9078838 C18.7882353,25.4091286 17.1529412,23.8522822 17.1529412,22.6207469 C17.1529412,21.2846473 18.8588235,20.1228216 18.8588235,18.6821577 C18.8588235,17.2414938 17.1294118,16.5676349 17.1294118,15.0804979 C17.1294118,13.593361 18.2,12.7684647 18.2,11.1302905 C18.2,9.85228216 17.5647059,8.70207469 16.6235294,7.993361 C16.6,7.98174274 16.5882353,7.95850622 16.5647059,7.94688797 C16.4823529,7.87717842 16.4,7.95850622 16.4705882,8.03983402 C17.1294118,8.85311203 17.4823529,9.6780083 17.4823529,10.8979253 C17.4823529,12.3966805 16.2588235,13.6165975 16.2588235,15.0688797 C16.2588235,16.7883817 17.9058824,17.2763485 17.9058824,18.6821577 C17.9058824,20.0879668 16.1411765,21.2149378 16.1411765,22.7136929 C16.1411765,24.0962656 17.8117647,25.6414938 17.5176471,27.233195 C17.1882353,27.3145228 16.8470588,27.3958506 16.5058824,27.4539419 C16.8235294,25.4672199 15.1882353,24.026556 15.1882353,22.7253112 C15.1882353,21.3195021 17.0117647,20.053112 17.0117647,18.6821577 C17.0117647,17.3809129 15.7058824,16.9626556 15.5294118,15.626556 C15.5058824,15.4406639 15.3529412,15.3128631 15.1529412,15.3477178 C14.8823529,15.3941909 14.5411765,15.5684647 14.0117647,15.5684647 C13.4705882,15.5684647 13.1411765,15.3941909 12.8705882,15.3477178 C12.6705882,15.3128631 12.5176471,15.4522822 12.4941176,15.626556 C12.3176471,16.9626556 11.0117647,17.3809129 11.0117647,18.6821577 C11.0117647,20.0647303 12.8352941,21.3195021 12.8352941,22.7253112 C12.8352941,24.026556 11.2,25.4556017 11.5176471,27.4539419 C11.1764706,27.3958506 10.8352941,27.3145228 10.5058824,27.233195 C10.2235294,25.6298755 11.8823529,24.0962656 11.8823529,22.7136929 C11.8823529,21.2149378 10.1176471,20.0879668 10.1176471,18.6821577 C10.1176471,17.2763485 11.7647059,16.7883817 11.7647059,15.0688797 C11.7647059,13.6165975 10.5411765,12.3966805 10.5411765,10.8979253 C10.5411765,9.6780083 10.8941176,8.85311203 11.5529412,8.03983402 C11.6117647,7.95850622 11.5411765,7.88879668 11.4588235,7.94688797 C11.4352941,7.95850622 11.4235294,7.98174274 11.4,7.993361 C10.4705882,8.70207469 9.82352941,9.85228216 9.82352941,11.1302905 C9.82352941,12.7684647 10.8941176,13.593361 10.8941176,15.0804979 C10.8941176,16.5676349 9.16470588,17.2414938 9.16470588,18.6821577 C9.16470588,20.1228216 10.8705882,21.2846473 10.8705882,22.6207469 C10.8705882,23.8522822 9.23529412,25.3975104 9.42352941,26.9078838 C9.09411765,26.7917012 8.77647059,26.6755187 8.45882353,26.5360996 C8.48235294,25.0489627 9.92941176,23.7941909 9.92941176,22.5394191 C9.92941176,21.1568465 8.28235294,20.0298755 8.28235294,18.6821577 C8.28235294,17.3344398 10.0470588,16.5443983 10.0470588,15.1037344 C10.0470588,13.6630705 9.16470588,12.8497925 9.16470588,11.3742739 C9.16470588,10.0614108 9.63529412,9.20165975 10.4352941,8.24896266 C10.2588235,8.34190871 10.1058824,8.44647303 9.95294118,8.57427386 C9.10588235,9.31784232 8.55294118,10.479668 8.55294118,11.6182573 C8.55294118,13.186722 9.31764706,13.8838174 9.31764706,15.1037344 C9.31764706,16.3236515 7.51764706,17.2879668 7.51764706,18.6821577 C7.51764706,20.0763485 9.08235294,21.2497925 9.08235294,22.4348548 C9.08235294,23.4921162 7.74117647,24.8979253 7.69411765,26.1759336 C7.42352941,26.0365145 7.15294118,25.8970954 6.88235294,25.7344398 C6.98823529,24.5609959 8.25882353,23.6315353 8.25882353,22.4580913 C8.25882353,22.0282158 8.05882353,21.6680498 7.88235294,21.3775934 C8.4,23.0041494 6.47058824,23.9684647 6.29411765,25.3626556 C5.94117647,25.1302905 5.6,24.8863071 5.27058824,24.6190871 C5.42352941,24.3634855 5.65882353,24.0381743 5.91764706,23.8639004 C5.8,23.7128631 5.67058824,23.573444 5.56470588,23.4107884 C5.24705882,23.5966805 4.97647059,23.9452282 4.8,24.2240664 C4.51764706,23.980083 4.23529412,23.7128631 3.97647059,23.4456432 C4.22352941,23.1435685 4.54117647,22.6788382 5,22.5626556 C4.89411765,22.3883817 4.78823529,22.2024896 4.69411765,22.0165975 C4.15294118,22.1560166 3.78823529,22.6556017 3.51764706,22.9576763 C3.27058824,22.6788382 3.03529412,22.4 2.81176471,22.0979253 C3.22352941,21.8307054 3.55294118,21.180083 4.29411765,21.1452282 C4.35294118,21.2962656 4.42352941,21.4473029 4.48235294,21.5983402 C4.56470588,21.7726141 4.68235294,21.8307054 4.90588235,21.8307054 C5.58823529,21.8307054 6.64705882,21.3892116 7.45882353,20.5991701 C6.92941176,19.646473 6.77647059,19.1701245 6.77647059,18.6705394 C6.77647059,17.4157676 8.58823529,16.3585062 8.58823529,15.1385892 C8.58823529,13.9186722 7.96470588,13.2215768 7.96470588,11.8970954 C7.96470588,10.7004149 8.50588235,9.6780083 9.22352941,8.806639 C9.04705882,8.91120332 8.89411765,9.03900415 8.74117647,9.19004149 C7.96470588,9.95684647 7.45882353,11.0954357 7.45882353,12.1294606 C7.45882353,13.5352697 7.98823529,14.1045643 7.98823529,15.1502075 C7.98823529,16.1145228 5.92941176,17.4390041 6.16470588,18.7518672 C5.44705882,19.4024896 4.58823529,19.6813278 3.83529412,19.6813278 C3.90588235,19.9485477 3.97647059,20.2157676 4.05882353,20.4829876 C3.21176471,20.5294606 2.82352941,21.2381743 2.38823529,21.4705394 C2.16470588,21.1452282 1.96470588,20.8082988 1.77647059,20.459751 C2.52941176,20.3784232 2.75294118,19.4257261 3.8,19.5070539 C3.74117647,19.2514523 3.69411765,18.9958506 3.65882353,18.740249 C2.44705882,18.6589212 2.17647059,19.6697095 1.38823529,19.7045643 C1.22352941,19.3443983 1.07058824,18.9842324 0.929411765,18.6124481 C2.03529412,18.6589212 2.41176471,17.6016598 3.56470588,17.613278 L3.56470588,17.2879668 C3.56470588,17.0904564 3.57647059,16.9045643 3.57647059,16.7070539 C2.21176471,16.6721992 1.8,17.8340249 0.623529412,17.7178423 C0.517647059,17.3576763 0.423529412,16.9858921 0.341176471,16.6024896 C1.82352941,16.7883817 2.36470588,15.5452282 3.70588235,15.5568465 C3.76470588,15.2082988 3.84705882,14.859751 3.94117647,14.5228216 C2.31764706,14.453112 1.75294118,15.8473029 0.176470588,15.5917012 C0.129411765,15.26639 0.105882353,14.9410788 0.0823529412,14.6157676 C1.91764706,14.813278 2.61176471,13.3261411 4.28235294,13.5120332 C4.43529412,13.1170124 4.62352941,12.73361 4.83529412,12.3618257 C2.74117647,12.0016598 2.02352941,13.7327801 0.0705882353,13.4655602 C0.235294118,6.02987552 6.41176471,0.0697095436 13.9882353,0.0697095436 C18.8251982,0.0697095436 23.0837582,2.49142036 25.5908083,6.1763378 C27.0168226,8.27232491 27.8761615,10.777004 27.9529412,13.4771784 C26,13.7443983 25.2823529,12.013278 23.1882353,12.373444 C23.4,12.7452282 23.5764706,13.1286307 23.7411765,13.5236515 C25.4117647,13.3261411 26.0941176,14.8248963 27.9411765,14.6157676 M7.98823529,8.82987552 C6.96470588,8.41161826 5.71764706,8.51618257 4.64705882,9.19004149 C4.48235294,8.21410788 3.94117647,7.34273859 3.17647059,6.81991701 C3.07058824,6.75020747 2.96470588,6.81991701 2.96470588,6.93609959 C3.12941176,9.00414938 1.90588235,10.793361 0.4,12.373444 C1.95294118,12.8381743 3.27058824,10.8630705 5.27058824,11.5485477 C6.01176471,10.4912863 6.92941176,9.56182573 7.98823529,8.82987552 M13.9882353,7.58672199 C12.6941176,7.58672199 11.6,8.30705394 11.3176471,9.24813278 C11.2941176,9.31784232 11.3294118,9.36431535 11.4117647,9.32946058 C11.6470588,9.22489627 11.9058824,9.17842324 12.2,9.17842324 C12.7294118,9.17842324 13.2,9.37593361 13.4705882,9.70124481 C13.5882353,10.0962656 13.6,10.6771784 13.4588235,11.0024896 C13.2470588,10.9560166 13.1647059,10.793361 12.9529412,10.793361 C12.7411765,10.793361 12.5764706,10.9443983 12.2117647,10.9443983 C11.8470588,10.9443983 11.8117647,10.7701245 11.5764706,10.7701245 C11.2941176,10.7701245 11.2470588,11.0489627 11.2470588,11.3742739 C11.2470588,12.8033195 12.5764706,14.766805 13.9882353,14.766805 C15.4,14.766805 16.7294118,12.8033195 16.7294118,11.3742739 C16.7294118,11.0489627 16.6588235,10.7817427 16.3764706,10.746888 C16.2352941,10.8514523 16.0941176,10.9443983 15.7647059,10.9443983 C15.4,10.9443983 15.3058824,10.793361 15.0941176,10.793361 C14.8352941,10.793361 14.8588235,11.3278008 14.5529412,11.3626556 C14.3529412,10.8863071 14.3411765,10.2589212 14.5058824,9.71286307 C14.7764706,9.37593361 15.2470588,9.19004149 15.7764706,9.19004149 C16.0588235,9.19004149 16.3294118,9.23651452 16.5647059,9.34107884 C16.6470588,9.37593361 16.6823529,9.32946058 16.6588235,9.25975104 C16.3764706,8.30705394 15.2823529,7.58672199 13.9882353,7.58672199 M16.0588235,9.63153527 C15.7411765,9.63153527 15.3882353,9.72448133 15.1529412,9.98008299 C15.1294118,10.0497925 15.1294118,10.1543568 15.1647059,10.2124481 C15.7294118,10.026556 16.2235294,10.0149378 16.4705882,10.2821577 C16.6,10.1659751 16.6352941,10.0614108 16.6352941,9.94522822 C16.6352941,9.7593361 16.4352941,9.63153527 16.0588235,9.63153527 M11.5176471,10.2821577 C11.7882353,10.0149378 12.3647059,10.026556 12.9529412,10.2356846 C12.9764706,9.94522822 12.4470588,9.61991701 11.9176471,9.61991701 C11.5294118,9.61991701 11.3411765,9.74771784 11.3411765,9.93360996 C11.3529412,10.0614108 11.3882353,10.1659751 11.5176471,10.2821577 M20.4588235,5.44896266 C19.4352941,5.5186722 18.5411765,5.86721992 17.8235294,6.44813278 C18.1294118,5.58838174 18.5176471,4.84481328 19.0117647,4.12448133 C17.7058824,4.26390041 16.6235294,4.72863071 15.8235294,5.54190871 L15.2,3.92697095 L16.5764706,2.7186722 L14.7294118,2.59087137 L13.9882353,0.894605809 L13.2470588,2.59087137 L11.4,2.7186722 L12.7764706,3.92697095 L12.1529412,5.54190871 C11.3529412,4.74024896 10.2705882,4.26390041 8.96470588,4.12448133 C9.45882353,4.84481328 9.84705882,5.6 10.1529412,6.44813278 C9.43529412,5.86721992 8.54117647,5.5186722 7.51764706,5.44896266 C8.12941176,6.22738589 8.67058824,7.06390041 9.08235294,7.95850622 C9.12941176,8.06307054 9.22352941,8.09792531 9.32941176,8.03983402 C10.7294118,7.35435685 12.3058824,6.9593361 13.9882353,6.9593361 C15.6588235,6.9593361 17.2352941,7.34273859 18.6470588,8.03983402 C18.7529412,8.09792531 18.8470588,8.06307054 18.8941176,7.95850622 C19.2941176,7.06390041 19.8470588,6.22738589 20.4588235,5.44896266 M22.6941176,11.5485477 C24.7058824,10.8630705 26.0235294,12.826556 27.5764706,12.373444 C26.0705882,10.793361 24.8470588,9.00414938 25.0117647,6.93609959 C25.0235294,6.81991701 24.9058824,6.75020747 24.8117647,6.81991701 C24.0470588,7.34273859 23.5058824,8.21410788 23.3411765,9.19004149 C22.2823529,8.51618257 21.0352941,8.42323651 20,8.82987552 C21.0588235,9.56182573 21.9647059,10.4912863 22.6941176,11.5485477" id="Shape" fill="#00AF66"></path>
                        </g>
                    </g>
                </g>
            </g>
        </g>
    </g>
</svg>